<svg width="24" height="24" viewBox="0 0 24 24" fill="none" xmlns="http://www.w3.org/2000/svg">
<path fill-rule="evenodd" clip-rule="evenodd" d="M11.9999 7.93994C10.691 7.93994 9.62988 9.00103 9.62988 10.3099C9.62988 11.6189 10.691 12.6799 11.9999 12.6799C13.3088 12.6799 14.3699 11.6189 14.3699 10.3099C14.3699 9.00103 13.3088 7.93994 11.9999 7.93994ZM8.12988 10.3099C8.12988 8.1726 9.86254 6.43994 11.9999 6.43994C14.1372 6.43994 15.8699 8.1726 15.8699 10.3099C15.8699 12.4473 14.1372 14.1799 11.9999 14.1799C9.86254 14.1799 8.12988 12.4473 8.12988 10.3099Z" fill="#666666"/>
<path fill-rule="evenodd" clip-rule="evenodd" d="M12.0034 2.75C8.58671 2.74769 5.24485 4.73032 4.35162 8.65591C3.29456 13.3261 6.18828 17.3762 8.91039 19.9997C10.6409 21.661 13.3609 21.659 15.0794 20.0004L15.0807 19.999C17.8127 17.3756 20.7059 13.3354 19.6487 8.6656L19.6487 8.66556C18.7602 4.73971 15.4204 2.75231 12.0034 2.75ZM21.1117 8.33441C20.0402 3.60029 15.985 1.25269 12.0045 1.25C8.02382 1.24731 3.96581 3.58953 2.88889 8.32364L2.88871 8.32441C1.64601 13.8139 5.07199 18.3836 7.86975 21.08L7.87069 21.0809C10.1801 23.2989 13.8193 23.3008 16.1207 21.08C18.9285 18.3834 22.3544 13.8239 21.1117 8.33441Z" fill="#666666"/>
</svg>
